%TF.GenerationSoftware,KiCad,Pcbnew,6.0.11-2627ca5db0~126~ubuntu20.04.1*%
%TF.CreationDate,2023-04-18T17:20:39+02:00*%
%TF.ProjectId,Giger-counter-addon,47696765-722d-4636-9f75-6e7465722d61,rev?*%
%TF.SameCoordinates,Original*%
%TF.FileFunction,Soldermask,Top*%
%TF.FilePolarity,Negative*%
%FSLAX46Y46*%
G04 Gerber Fmt 4.6, Leading zero omitted, Abs format (unit mm)*
G04 Created by KiCad (PCBNEW 6.0.11-2627ca5db0~126~ubuntu20.04.1) date 2023-04-18 17:20:39*
%MOMM*%
%LPD*%
G01*
G04 APERTURE LIST*
G04 Aperture macros list*
%AMRoundRect*
0 Rectangle with rounded corners*
0 $1 Rounding radius*
0 $2 $3 $4 $5 $6 $7 $8 $9 X,Y pos of 4 corners*
0 Add a 4 corners polygon primitive as box body*
4,1,4,$2,$3,$4,$5,$6,$7,$8,$9,$2,$3,0*
0 Add four circle primitives for the rounded corners*
1,1,$1+$1,$2,$3*
1,1,$1+$1,$4,$5*
1,1,$1+$1,$6,$7*
1,1,$1+$1,$8,$9*
0 Add four rect primitives between the rounded corners*
20,1,$1+$1,$2,$3,$4,$5,0*
20,1,$1+$1,$4,$5,$6,$7,0*
20,1,$1+$1,$6,$7,$8,$9,0*
20,1,$1+$1,$8,$9,$2,$3,0*%
%AMFreePoly0*
4,1,22,0.550000,-0.750000,0.000000,-0.750000,0.000000,-0.745033,-0.079941,-0.743568,-0.215256,-0.701293,-0.333266,-0.622738,-0.424486,-0.514219,-0.481581,-0.384460,-0.499164,-0.250000,-0.500000,-0.250000,-0.500000,0.250000,-0.499164,0.250000,-0.499963,0.256109,-0.478152,0.396186,-0.417904,0.524511,-0.324060,0.630769,-0.204165,0.706417,-0.067858,0.745374,0.000000,0.744959,0.000000,0.750000,
0.550000,0.750000,0.550000,-0.750000,0.550000,-0.750000,$1*%
%AMFreePoly1*
4,1,20,0.000000,0.744959,0.073905,0.744508,0.209726,0.703889,0.328688,0.626782,0.421226,0.519385,0.479903,0.390333,0.500000,0.250000,0.500000,-0.250000,0.499851,-0.262216,0.476331,-0.402017,0.414519,-0.529596,0.319384,-0.634700,0.198574,-0.708877,0.061801,-0.746166,0.000000,-0.745033,0.000000,-0.750000,-0.550000,-0.750000,-0.550000,0.750000,0.000000,0.750000,0.000000,0.744959,
0.000000,0.744959,$1*%
G04 Aperture macros list end*
%ADD10C,0.375000*%
%ADD11C,0.100000*%
%ADD12R,2.000000X1.500000*%
%ADD13R,2.000000X3.800000*%
%ADD14R,3.000000X1.000000*%
%ADD15R,1.000000X3.000000*%
%ADD16RoundRect,0.200000X0.200000X0.275000X-0.200000X0.275000X-0.200000X-0.275000X0.200000X-0.275000X0*%
%ADD17RoundRect,0.200000X-0.275000X0.200000X-0.275000X-0.200000X0.275000X-0.200000X0.275000X0.200000X0*%
%ADD18R,1.700000X1.700000*%
%ADD19O,1.700000X1.700000*%
%ADD20RoundRect,0.250000X0.475000X-0.250000X0.475000X0.250000X-0.475000X0.250000X-0.475000X-0.250000X0*%
%ADD21RoundRect,0.200000X-0.200000X-0.275000X0.200000X-0.275000X0.200000X0.275000X-0.200000X0.275000X0*%
%ADD22RoundRect,0.250000X-0.475000X0.250000X-0.475000X-0.250000X0.475000X-0.250000X0.475000X0.250000X0*%
%ADD23R,4.600000X2.000000*%
%ADD24O,4.200000X2.000000*%
%ADD25O,2.000000X4.200000*%
%ADD26RoundRect,0.200000X0.275000X-0.200000X0.275000X0.200000X-0.275000X0.200000X-0.275000X-0.200000X0*%
%ADD27R,0.450000X0.600000*%
%ADD28R,2.450000X5.900000*%
%ADD29FreePoly0,90.000000*%
%ADD30R,1.500000X1.000000*%
%ADD31FreePoly1,90.000000*%
%ADD32R,4.600000X1.100000*%
%ADD33R,9.400000X10.800000*%
G04 APERTURE END LIST*
D10*
X156222000Y-122359428D02*
X156150571Y-122502285D01*
X156150571Y-122716571D01*
X156222000Y-122930857D01*
X156364857Y-123073714D01*
X156507714Y-123145142D01*
X156793428Y-123216571D01*
X157007714Y-123216571D01*
X157293428Y-123145142D01*
X157436285Y-123073714D01*
X157579142Y-122930857D01*
X157650571Y-122716571D01*
X157650571Y-122573714D01*
X157579142Y-122359428D01*
X157507714Y-122288000D01*
X157007714Y-122288000D01*
X157007714Y-122573714D01*
X157650571Y-121645142D02*
X156650571Y-121645142D01*
X156150571Y-121645142D02*
X156222000Y-121716571D01*
X156293428Y-121645142D01*
X156222000Y-121573714D01*
X156150571Y-121645142D01*
X156293428Y-121645142D01*
X156650571Y-120288000D02*
X157864857Y-120288000D01*
X158007714Y-120359428D01*
X158079142Y-120430857D01*
X158150571Y-120573714D01*
X158150571Y-120788000D01*
X158079142Y-120930857D01*
X157579142Y-120288000D02*
X157650571Y-120430857D01*
X157650571Y-120716571D01*
X157579142Y-120859428D01*
X157507714Y-120930857D01*
X157364857Y-121002285D01*
X156936285Y-121002285D01*
X156793428Y-120930857D01*
X156722000Y-120859428D01*
X156650571Y-120716571D01*
X156650571Y-120430857D01*
X156722000Y-120288000D01*
X157579142Y-119002285D02*
X157650571Y-119145142D01*
X157650571Y-119430857D01*
X157579142Y-119573714D01*
X157436285Y-119645142D01*
X156864857Y-119645142D01*
X156722000Y-119573714D01*
X156650571Y-119430857D01*
X156650571Y-119145142D01*
X156722000Y-119002285D01*
X156864857Y-118930857D01*
X157007714Y-118930857D01*
X157150571Y-119645142D01*
X157650571Y-118288000D02*
X156650571Y-118288000D01*
X156936285Y-118288000D02*
X156793428Y-118216571D01*
X156722000Y-118145142D01*
X156650571Y-118002285D01*
X156650571Y-117859428D01*
X157579142Y-115573714D02*
X157650571Y-115716571D01*
X157650571Y-116002285D01*
X157579142Y-116145142D01*
X157507714Y-116216571D01*
X157364857Y-116288000D01*
X156936285Y-116288000D01*
X156793428Y-116216571D01*
X156722000Y-116145142D01*
X156650571Y-116002285D01*
X156650571Y-115716571D01*
X156722000Y-115573714D01*
X157650571Y-114716571D02*
X157579142Y-114859428D01*
X157507714Y-114930857D01*
X157364857Y-115002285D01*
X156936285Y-115002285D01*
X156793428Y-114930857D01*
X156722000Y-114859428D01*
X156650571Y-114716571D01*
X156650571Y-114502285D01*
X156722000Y-114359428D01*
X156793428Y-114288000D01*
X156936285Y-114216571D01*
X157364857Y-114216571D01*
X157507714Y-114288000D01*
X157579142Y-114359428D01*
X157650571Y-114502285D01*
X157650571Y-114716571D01*
X156650571Y-112930857D02*
X157650571Y-112930857D01*
X156650571Y-113573714D02*
X157436285Y-113573714D01*
X157579142Y-113502285D01*
X157650571Y-113359428D01*
X157650571Y-113145142D01*
X157579142Y-113002285D01*
X157507714Y-112930857D01*
X156650571Y-112216571D02*
X157650571Y-112216571D01*
X156793428Y-112216571D02*
X156722000Y-112145142D01*
X156650571Y-112002285D01*
X156650571Y-111788000D01*
X156722000Y-111645142D01*
X156864857Y-111573714D01*
X157650571Y-111573714D01*
X156650571Y-111073714D02*
X156650571Y-110502285D01*
X156150571Y-110859428D02*
X157436285Y-110859428D01*
X157579142Y-110788000D01*
X157650571Y-110645142D01*
X157650571Y-110502285D01*
X157579142Y-109430857D02*
X157650571Y-109573714D01*
X157650571Y-109859428D01*
X157579142Y-110002285D01*
X157436285Y-110073714D01*
X156864857Y-110073714D01*
X156722000Y-110002285D01*
X156650571Y-109859428D01*
X156650571Y-109573714D01*
X156722000Y-109430857D01*
X156864857Y-109359428D01*
X157007714Y-109359428D01*
X157150571Y-110073714D01*
X157650571Y-108716571D02*
X156650571Y-108716571D01*
X156936285Y-108716571D02*
X156793428Y-108645142D01*
X156722000Y-108573714D01*
X156650571Y-108430857D01*
X156650571Y-108288000D01*
X157650571Y-106645142D02*
X156150571Y-106645142D01*
X156150571Y-105645142D02*
X156150571Y-105359428D01*
X156222000Y-105216571D01*
X156364857Y-105073714D01*
X156650571Y-105002285D01*
X157150571Y-105002285D01*
X157436285Y-105073714D01*
X157579142Y-105216571D01*
X157650571Y-105359428D01*
X157650571Y-105645142D01*
X157579142Y-105788000D01*
X157436285Y-105930857D01*
X157150571Y-106002285D01*
X156650571Y-106002285D01*
X156364857Y-105930857D01*
X156222000Y-105788000D01*
X156150571Y-105645142D01*
X156150571Y-104573714D02*
X156150571Y-103716571D01*
X157650571Y-104145142D02*
X156150571Y-104145142D01*
%TO.C,REF\u002A\u002A*%
G36*
X154938000Y-125173000D02*
G01*
X150438000Y-129673000D01*
X141938000Y-129673000D01*
X137438000Y-125173000D01*
X141938000Y-120673000D01*
X150438000Y-120673000D01*
X154938000Y-125173000D01*
G37*
D11*
X154938000Y-125173000D02*
X150438000Y-129673000D01*
X141938000Y-129673000D01*
X137438000Y-125173000D01*
X141938000Y-120673000D01*
X150438000Y-120673000D01*
X154938000Y-125173000D01*
%TD*%
D12*
%TO.C,U2*%
X123320000Y-103870000D03*
D13*
X129620000Y-106170000D03*
D12*
X123320000Y-106170000D03*
X123320000Y-108470000D03*
%TD*%
D14*
%TO.C,U3*%
X96005000Y-109920000D03*
X96005000Y-111920000D03*
X96005000Y-113920000D03*
X96005000Y-115920000D03*
X96005000Y-117920000D03*
X96005000Y-119920000D03*
X96005000Y-121920000D03*
X96005000Y-123920000D03*
D15*
X99005000Y-125420000D03*
X101005000Y-125420000D03*
X103005000Y-125420000D03*
X105005000Y-125420000D03*
X107005000Y-125420000D03*
X109005000Y-125420000D03*
D14*
X112005000Y-123920000D03*
X112005000Y-121920000D03*
X112005000Y-119920000D03*
X112005000Y-117920000D03*
X112005000Y-115920000D03*
X112005000Y-113920000D03*
X112005000Y-111920000D03*
X112005000Y-109920000D03*
%TD*%
D16*
%TO.C,R5*%
X93985000Y-126110000D03*
X92335000Y-126110000D03*
%TD*%
D17*
%TO.C,R3*%
X117090000Y-126125000D03*
X117090000Y-127775000D03*
%TD*%
D18*
%TO.C,J3*%
X121870000Y-113870000D03*
D19*
X121870000Y-116410000D03*
X121870000Y-118950000D03*
X121870000Y-121490000D03*
%TD*%
D18*
%TO.C,J4*%
X116270000Y-122780000D03*
D19*
X116270000Y-120240000D03*
X116270000Y-117700000D03*
X116270000Y-115160000D03*
X116270000Y-112620000D03*
X116270000Y-110080000D03*
%TD*%
D20*
%TO.C,C3*%
X120350000Y-109020000D03*
X120350000Y-107120000D03*
%TD*%
D21*
%TO.C,R2*%
X91525000Y-111650000D03*
X93175000Y-111650000D03*
%TD*%
D22*
%TO.C,C4*%
X120350000Y-103430000D03*
X120350000Y-105330000D03*
%TD*%
%TO.C,C1*%
X133600000Y-105150000D03*
X133600000Y-107050000D03*
%TD*%
D18*
%TO.C,J1*%
X92060000Y-115270000D03*
D19*
X89520000Y-115270000D03*
X92060000Y-117810000D03*
X89520000Y-117810000D03*
X92060000Y-120350000D03*
X89520000Y-120350000D03*
X92060000Y-122890000D03*
X89520000Y-122890000D03*
%TD*%
D17*
%TO.C,R6*%
X92100000Y-105275000D03*
X92100000Y-106925000D03*
%TD*%
D23*
%TO.C,J6*%
X131800000Y-115000000D03*
D24*
X131800000Y-121300000D03*
D25*
X136600000Y-117900000D03*
%TD*%
D20*
%TO.C,C2*%
X133604000Y-110932000D03*
X133604000Y-109032000D03*
%TD*%
D18*
%TO.C,J5*%
X122200000Y-126400000D03*
D19*
X124740000Y-126400000D03*
%TD*%
D18*
%TO.C,J2*%
X92120000Y-102400000D03*
%TD*%
D26*
%TO.C,R4*%
X115260000Y-127745000D03*
X115260000Y-126095000D03*
%TD*%
D21*
%TO.C,R1*%
X91525000Y-109920000D03*
X93175000Y-109920000D03*
%TD*%
D27*
%TO.C,D1*%
X136144000Y-105630000D03*
X136144000Y-107730000D03*
%TD*%
D28*
%TO.C,L1*%
X141008000Y-117094000D03*
X146558000Y-117094000D03*
%TD*%
D29*
%TO.C,JP1*%
X116370000Y-103980000D03*
D30*
X116370000Y-102680000D03*
D31*
X116370000Y-101380000D03*
%TD*%
D32*
%TO.C,U1*%
X140275000Y-104420000D03*
X140275000Y-106120000D03*
X140275000Y-107820000D03*
D33*
X149425000Y-107820000D03*
D32*
X140275000Y-109520000D03*
X140275000Y-111220000D03*
%TD*%
M02*
