M48
; DRILL file {KiCad 6.0.11-2627ca5db0~126~ubuntu20.04.1} date Tue 18 Apr 2023 05:20:32 PM CEST
; FORMAT={-:-/ absolute / metric / decimal}
; #@! TF.CreationDate,2023-04-18T17:20:32+02:00
; #@! TF.GenerationSoftware,Kicad,Pcbnew,6.0.11-2627ca5db0~126~ubuntu20.04.1
; #@! TF.FileFunction,Plated,1,2,PTH
FMAT,2
METRIC
; #@! TA.AperFunction,Plated,PTH,ViaDrill
T1C0.400
; #@! TA.AperFunction,Plated,PTH,ComponentDrill
T2C1.000
%
G90
G05
T1
X88.8Y-113.3
X90.5Y-112.9
X98.4Y-112.0
X98.4Y-113.9
X98.4Y-118.1
X98.6Y-120.0
X99.9Y-118.0
X101.7Y-120.2
X109.6Y-116.0
X109.7Y-113.9
X115.1Y-106.2
X118.1Y-106.2
X120.5Y-101.9
X125.1Y-104.7
X127.1Y-104.5
X127.1Y-107.1
X131.8Y-103.4
X134.0Y-103.4
X139.192Y-114.554
X143.51Y-106.172
X143.764Y-109.728
X149.606Y-117.856
T2
X89.52Y-115.27
X89.52Y-117.81
X89.52Y-120.35
X89.52Y-122.89
X92.06Y-115.27
X92.06Y-117.81
X92.06Y-120.35
X92.06Y-122.89
X92.12Y-102.4
X116.27Y-110.08
X116.27Y-112.62
X116.27Y-115.16
X116.27Y-117.7
X116.27Y-120.24
X116.27Y-122.78
X121.87Y-113.87
X121.87Y-116.41
X121.87Y-118.95
X121.87Y-121.49
X122.2Y-126.4
X124.74Y-126.4
T2
G00X130.5Y-115.0
M15
G01X133.1Y-115.0
M16
G05
G00X130.7Y-121.3
M15
G01X132.9Y-121.3
M16
G05
G00X136.6Y-116.8
M15
G01X136.6Y-119.0
M16
G05
T0
M30
