%TF.GenerationSoftware,KiCad,Pcbnew,6.0.11-2627ca5db0~126~ubuntu20.04.1*%
%TF.CreationDate,2023-04-18T17:20:39+02:00*%
%TF.ProjectId,Giger-counter-addon,47696765-722d-4636-9f75-6e7465722d61,rev?*%
%TF.SameCoordinates,Original*%
%TF.FileFunction,Paste,Top*%
%TF.FilePolarity,Positive*%
%FSLAX46Y46*%
G04 Gerber Fmt 4.6, Leading zero omitted, Abs format (unit mm)*
G04 Created by KiCad (PCBNEW 6.0.11-2627ca5db0~126~ubuntu20.04.1) date 2023-04-18 17:20:39*
%MOMM*%
%LPD*%
G01*
G04 APERTURE LIST*
G04 Aperture macros list*
%AMRoundRect*
0 Rectangle with rounded corners*
0 $1 Rounding radius*
0 $2 $3 $4 $5 $6 $7 $8 $9 X,Y pos of 4 corners*
0 Add a 4 corners polygon primitive as box body*
4,1,4,$2,$3,$4,$5,$6,$7,$8,$9,$2,$3,0*
0 Add four circle primitives for the rounded corners*
1,1,$1+$1,$2,$3*
1,1,$1+$1,$4,$5*
1,1,$1+$1,$6,$7*
1,1,$1+$1,$8,$9*
0 Add four rect primitives between the rounded corners*
20,1,$1+$1,$2,$3,$4,$5,0*
20,1,$1+$1,$4,$5,$6,$7,0*
20,1,$1+$1,$6,$7,$8,$9,0*
20,1,$1+$1,$8,$9,$2,$3,0*%
G04 Aperture macros list end*
%ADD10R,2.000000X1.500000*%
%ADD11R,2.000000X3.800000*%
%ADD12R,3.000000X1.000000*%
%ADD13R,1.000000X3.000000*%
%ADD14RoundRect,0.200000X0.200000X0.275000X-0.200000X0.275000X-0.200000X-0.275000X0.200000X-0.275000X0*%
%ADD15RoundRect,0.200000X-0.275000X0.200000X-0.275000X-0.200000X0.275000X-0.200000X0.275000X0.200000X0*%
%ADD16RoundRect,0.250000X0.475000X-0.250000X0.475000X0.250000X-0.475000X0.250000X-0.475000X-0.250000X0*%
%ADD17RoundRect,0.200000X-0.200000X-0.275000X0.200000X-0.275000X0.200000X0.275000X-0.200000X0.275000X0*%
%ADD18RoundRect,0.250000X-0.475000X0.250000X-0.475000X-0.250000X0.475000X-0.250000X0.475000X0.250000X0*%
%ADD19RoundRect,0.200000X0.275000X-0.200000X0.275000X0.200000X-0.275000X0.200000X-0.275000X-0.200000X0*%
%ADD20R,0.450000X0.600000*%
%ADD21R,2.450000X5.900000*%
%ADD22R,4.550000X5.250000*%
%ADD23R,4.600000X1.100000*%
G04 APERTURE END LIST*
D10*
%TO.C,U2*%
X123320000Y-103870000D03*
D11*
X129620000Y-106170000D03*
D10*
X123320000Y-106170000D03*
X123320000Y-108470000D03*
%TD*%
D12*
%TO.C,U3*%
X96005000Y-109920000D03*
X96005000Y-111920000D03*
X96005000Y-113920000D03*
X96005000Y-115920000D03*
X96005000Y-117920000D03*
X96005000Y-119920000D03*
X96005000Y-121920000D03*
X96005000Y-123920000D03*
D13*
X99005000Y-125420000D03*
X101005000Y-125420000D03*
X103005000Y-125420000D03*
X105005000Y-125420000D03*
X107005000Y-125420000D03*
X109005000Y-125420000D03*
D12*
X112005000Y-123920000D03*
X112005000Y-121920000D03*
X112005000Y-119920000D03*
X112005000Y-117920000D03*
X112005000Y-115920000D03*
X112005000Y-113920000D03*
X112005000Y-111920000D03*
X112005000Y-109920000D03*
%TD*%
D14*
%TO.C,R5*%
X93985000Y-126110000D03*
X92335000Y-126110000D03*
%TD*%
D15*
%TO.C,R3*%
X117090000Y-126125000D03*
X117090000Y-127775000D03*
%TD*%
D16*
%TO.C,C3*%
X120350000Y-109020000D03*
X120350000Y-107120000D03*
%TD*%
D17*
%TO.C,R2*%
X91525000Y-111650000D03*
X93175000Y-111650000D03*
%TD*%
D18*
%TO.C,C4*%
X120350000Y-103430000D03*
X120350000Y-105330000D03*
%TD*%
%TO.C,C1*%
X133600000Y-105150000D03*
X133600000Y-107050000D03*
%TD*%
D15*
%TO.C,R6*%
X92100000Y-105275000D03*
X92100000Y-106925000D03*
%TD*%
D16*
%TO.C,C2*%
X133604000Y-110932000D03*
X133604000Y-109032000D03*
%TD*%
D19*
%TO.C,R4*%
X115260000Y-127745000D03*
X115260000Y-126095000D03*
%TD*%
D17*
%TO.C,R1*%
X91525000Y-109920000D03*
X93175000Y-109920000D03*
%TD*%
D20*
%TO.C,D1*%
X136144000Y-105630000D03*
X136144000Y-107730000D03*
%TD*%
D21*
%TO.C,L1*%
X141008000Y-117094000D03*
X146558000Y-117094000D03*
%TD*%
D22*
%TO.C,U1*%
X151850000Y-110595000D03*
X147000000Y-105045000D03*
X151850000Y-105045000D03*
X147000000Y-110595000D03*
D23*
X140275000Y-104420000D03*
X140275000Y-106120000D03*
X140275000Y-107820000D03*
X140275000Y-109520000D03*
X140275000Y-111220000D03*
%TD*%
M02*
