%TF.GenerationSoftware,KiCad,Pcbnew,6.0.11-2627ca5db0~126~ubuntu20.04.1*%
%TF.CreationDate,2023-04-18T17:20:39+02:00*%
%TF.ProjectId,Giger-counter-addon,47696765-722d-4636-9f75-6e7465722d61,rev?*%
%TF.SameCoordinates,Original*%
%TF.FileFunction,Copper,L2,Bot*%
%TF.FilePolarity,Positive*%
%FSLAX46Y46*%
G04 Gerber Fmt 4.6, Leading zero omitted, Abs format (unit mm)*
G04 Created by KiCad (PCBNEW 6.0.11-2627ca5db0~126~ubuntu20.04.1) date 2023-04-18 17:20:39*
%MOMM*%
%LPD*%
G01*
G04 APERTURE LIST*
%TA.AperFunction,ComponentPad*%
%ADD10R,1.700000X1.700000*%
%TD*%
%TA.AperFunction,ComponentPad*%
%ADD11O,1.700000X1.700000*%
%TD*%
%TA.AperFunction,ComponentPad*%
%ADD12R,4.600000X2.000000*%
%TD*%
%TA.AperFunction,ComponentPad*%
%ADD13O,4.200000X2.000000*%
%TD*%
%TA.AperFunction,ComponentPad*%
%ADD14O,2.000000X4.200000*%
%TD*%
%TA.AperFunction,ViaPad*%
%ADD15C,0.800000*%
%TD*%
%TA.AperFunction,Conductor*%
%ADD16C,1.000000*%
%TD*%
%TA.AperFunction,Conductor*%
%ADD17C,0.500000*%
%TD*%
%TA.AperFunction,Conductor*%
%ADD18C,0.250000*%
%TD*%
G04 APERTURE END LIST*
D10*
%TO.P,J3,1,Pin_1*%
%TO.N,GND*%
X121870000Y-113870000D03*
D11*
%TO.P,J3,2,Pin_2*%
%TO.N,Pulse_pin*%
X121870000Y-116410000D03*
%TO.P,J3,3,Pin_3*%
%TO.N,+5V*%
X121870000Y-118950000D03*
%TO.P,J3,4,Pin_4*%
%TO.N,+9V*%
X121870000Y-121490000D03*
%TD*%
D10*
%TO.P,J4,1,Pin_1*%
%TO.N,GND*%
X116270000Y-122780000D03*
D11*
%TO.P,J4,2,Pin_2*%
%TO.N,/GPIO-0*%
X116270000Y-120240000D03*
%TO.P,J4,3,Pin_3*%
%TO.N,Net-(J4-Pad3)*%
X116270000Y-117700000D03*
%TO.P,J4,4,Pin_4*%
%TO.N,/Tx*%
X116270000Y-115160000D03*
%TO.P,J4,5,Pin_5*%
%TO.N,/Rx*%
X116270000Y-112620000D03*
%TO.P,J4,6,Pin_6*%
%TO.N,/Reset*%
X116270000Y-110080000D03*
%TD*%
D10*
%TO.P,J1,1,Pin_1*%
%TO.N,GND*%
X92060000Y-115270000D03*
D11*
%TO.P,J1,2,Pin_2*%
%TO.N,/GPIO-12*%
X89520000Y-115270000D03*
%TO.P,J1,3,Pin_3*%
%TO.N,/GPIO-10*%
X92060000Y-117810000D03*
%TO.P,J1,4,Pin_4*%
%TO.N,/GPIO-9*%
X89520000Y-117810000D03*
%TO.P,J1,5,Pin_5*%
%TO.N,/GPIO-5*%
X92060000Y-120350000D03*
%TO.P,J1,6,Pin_6*%
%TO.N,/ADC*%
X89520000Y-120350000D03*
%TO.P,J1,7,Pin_7*%
%TO.N,+3.3V*%
X92060000Y-122890000D03*
%TO.P,J1,8,Pin_8*%
%TO.N,+5V*%
X89520000Y-122890000D03*
%TD*%
D12*
%TO.P,J6,1*%
%TO.N,+9V*%
X131800000Y-115000000D03*
D13*
%TO.P,J6,2*%
%TO.N,GND*%
X131800000Y-121300000D03*
D14*
%TO.P,J6,3*%
%TO.N,unconnected-(J6-Pad3)*%
X136600000Y-117900000D03*
%TD*%
D10*
%TO.P,J5,1,Pin_1*%
%TO.N,GND*%
X122200000Y-126400000D03*
D11*
%TO.P,J5,2,Pin_2*%
%TO.N,+9V*%
X124740000Y-126400000D03*
%TD*%
D10*
%TO.P,J2,1,Pin_1*%
%TO.N,Net-(J2-Pad1)*%
X92120000Y-102400000D03*
%TD*%
D15*
%TO.N,+9V*%
X134000000Y-103400000D03*
%TO.N,GND*%
X131800000Y-103400000D03*
X125100000Y-104700000D03*
X118100000Y-106200000D03*
X115100000Y-106200000D03*
%TO.N,+5V*%
X149606000Y-117856000D03*
X127100000Y-104500000D03*
X143764000Y-109728000D03*
X127100000Y-107100000D03*
%TO.N,+3.3V*%
X98400000Y-113900000D03*
X120500000Y-101900000D03*
%TO.N,Net-(D1-Pad1)*%
X139192000Y-114554000D03*
X143510000Y-106172000D03*
%TO.N,/GPIO-12*%
X98600000Y-120000000D03*
%TO.N,/GPIO-10*%
X99900000Y-118000000D03*
%TO.N,/GPIO-5*%
X109700000Y-113900000D03*
X101700000Y-120200000D03*
%TO.N,/ADC*%
X88800000Y-113300000D03*
X98400000Y-112000000D03*
%TO.N,BEEPER*%
X90500000Y-112900000D03*
X98400000Y-118100000D03*
%TO.N,Pulse_pin*%
X109600000Y-116000000D03*
%TD*%
D16*
%TO.N,+9V*%
X124600000Y-122600000D02*
X124740000Y-122740000D01*
X135300000Y-121748000D02*
X130648000Y-126400000D01*
X130648000Y-126400000D02*
X124740000Y-126400000D01*
X135300000Y-120600000D02*
X135300000Y-121748000D01*
X121870000Y-121490000D02*
X123490000Y-121490000D01*
X131800000Y-117100000D02*
X135300000Y-120600000D01*
D17*
X131800000Y-115000000D02*
X131800000Y-105600000D01*
D16*
X123490000Y-121490000D02*
X124600000Y-122600000D01*
X131800000Y-115000000D02*
X131800000Y-117100000D01*
X124740000Y-122740000D02*
X124740000Y-126400000D01*
D17*
X131800000Y-105600000D02*
X134000000Y-103400000D01*
D16*
%TO.N,GND*%
X126000000Y-115600000D02*
X126000000Y-119200000D01*
D17*
X131800000Y-103400000D02*
X126400000Y-103400000D01*
X115100000Y-106500000D02*
X115100000Y-106200000D01*
X104900000Y-112900000D02*
X110000000Y-107800000D01*
D16*
X121870000Y-113870000D02*
X124270000Y-113870000D01*
D17*
X118600000Y-106700000D02*
X118600000Y-110400000D01*
D16*
X128100000Y-121300000D02*
X131800000Y-121300000D01*
D17*
X121400000Y-112000000D02*
X121870000Y-112470000D01*
X96900000Y-112900000D02*
X103300000Y-112900000D01*
X121870000Y-107930000D02*
X121870000Y-113870000D01*
X113800000Y-107800000D02*
X115100000Y-106500000D01*
X118100000Y-106200000D02*
X118600000Y-106700000D01*
X126400000Y-103400000D02*
X125100000Y-104700000D01*
D16*
X124270000Y-113870000D02*
X126000000Y-115600000D01*
D17*
X96700000Y-113100000D02*
X96900000Y-112900000D01*
X121870000Y-112470000D02*
X121870000Y-113870000D01*
X110000000Y-107800000D02*
X113800000Y-107800000D01*
X92060000Y-115270000D02*
X94530000Y-115270000D01*
D16*
X126000000Y-119200000D02*
X128100000Y-121300000D01*
D17*
X118100000Y-106200000D02*
X123600000Y-106200000D01*
X125100000Y-104700000D02*
X121870000Y-107930000D01*
X123600000Y-106200000D02*
X125100000Y-104700000D01*
X103300000Y-112900000D02*
X104900000Y-112900000D01*
X94530000Y-115270000D02*
X96700000Y-113100000D01*
X120200000Y-112000000D02*
X121400000Y-112000000D01*
X118600000Y-110400000D02*
X120200000Y-112000000D01*
%TO.N,+5V*%
X143764000Y-109728000D02*
X143764000Y-112014000D01*
X119600000Y-119900000D02*
X119600000Y-123300000D01*
X89800000Y-124800000D02*
X89520000Y-124520000D01*
X119600000Y-123300000D02*
X118100000Y-124800000D01*
D18*
X127100000Y-104500000D02*
X127100000Y-107100000D01*
D17*
X121870000Y-118950000D02*
X120550000Y-118950000D01*
X118100000Y-124800000D02*
X89800000Y-124800000D01*
X120550000Y-118950000D02*
X119600000Y-119900000D01*
X143764000Y-112014000D02*
X149606000Y-117856000D01*
X89520000Y-124520000D02*
X89520000Y-122890000D01*
%TO.N,+3.3V*%
X97910000Y-122890000D02*
X92060000Y-122890000D01*
X105300000Y-113900000D02*
X107700000Y-111500000D01*
X98400000Y-113900000D02*
X105300000Y-113900000D01*
X101600000Y-116600000D02*
X101600000Y-118300000D01*
X98400000Y-113900000D02*
X98900000Y-113900000D01*
X112800000Y-108700000D02*
X114200000Y-108700000D01*
X98900000Y-113900000D02*
X101600000Y-116600000D01*
X110500000Y-108700000D02*
X112800000Y-108700000D01*
X118000000Y-104900000D02*
X120500000Y-102400000D01*
X99800000Y-120100000D02*
X99800000Y-121000000D01*
X99800000Y-121000000D02*
X97910000Y-122890000D01*
X101600000Y-118300000D02*
X99800000Y-120100000D01*
X114200000Y-108700000D02*
X118000000Y-104900000D01*
X107700000Y-111500000D02*
X110500000Y-108700000D01*
X120500000Y-102400000D02*
X120500000Y-101900000D01*
%TO.N,Net-(D1-Pad1)*%
X139192000Y-110490000D02*
X143510000Y-106172000D01*
X139192000Y-114554000D02*
X139192000Y-110490000D01*
D18*
%TO.N,/GPIO-12*%
X90695000Y-120695000D02*
X90695000Y-119495000D01*
X88200000Y-116590000D02*
X89520000Y-115270000D01*
X94400000Y-120000000D02*
X92700000Y-121700000D01*
X91700000Y-121700000D02*
X90695000Y-120695000D01*
X90695000Y-119495000D02*
X90200000Y-119000000D01*
X90200000Y-119000000D02*
X88800000Y-119000000D01*
X88800000Y-119000000D02*
X88200000Y-118400000D01*
X98600000Y-120000000D02*
X94400000Y-120000000D01*
X88200000Y-118400000D02*
X88200000Y-116590000D01*
X92700000Y-121700000D02*
X91700000Y-121700000D01*
%TO.N,/GPIO-10*%
X99200000Y-117300000D02*
X99900000Y-118000000D01*
X97490000Y-117810000D02*
X98000000Y-117300000D01*
X92060000Y-117810000D02*
X97490000Y-117810000D01*
X98000000Y-117300000D02*
X99200000Y-117300000D01*
%TO.N,/GPIO-5*%
X108000000Y-113900000D02*
X109700000Y-113900000D01*
X101700000Y-120200000D02*
X108000000Y-113900000D01*
%TO.N,/ADC*%
X90100000Y-112000000D02*
X88800000Y-113300000D01*
X98400000Y-112000000D02*
X90100000Y-112000000D01*
%TO.N,BEEPER*%
X90769278Y-113169278D02*
X90500000Y-112900000D01*
X91285000Y-118985000D02*
X90769278Y-118469278D01*
X98400000Y-118100000D02*
X97515000Y-118985000D01*
X90769278Y-118469278D02*
X90769278Y-116569278D01*
X90769278Y-116569278D02*
X90769278Y-113169278D01*
X97515000Y-118985000D02*
X91285000Y-118985000D01*
%TO.N,Pulse_pin*%
X109600000Y-116000000D02*
X110000000Y-116400000D01*
X115900000Y-116400000D02*
X115910000Y-116410000D01*
X110000000Y-116400000D02*
X115900000Y-116400000D01*
X115910000Y-116410000D02*
X121870000Y-116410000D01*
%TD*%
M02*
