%TF.GenerationSoftware,KiCad,Pcbnew,6.0.11-2627ca5db0~126~ubuntu20.04.1*%
%TF.CreationDate,2023-04-18T17:20:39+02:00*%
%TF.ProjectId,Giger-counter-addon,47696765-722d-4636-9f75-6e7465722d61,rev?*%
%TF.SameCoordinates,Original*%
%TF.FileFunction,Legend,Bot*%
%TF.FilePolarity,Positive*%
%FSLAX46Y46*%
G04 Gerber Fmt 4.6, Leading zero omitted, Abs format (unit mm)*
G04 Created by KiCad (PCBNEW 6.0.11-2627ca5db0~126~ubuntu20.04.1) date 2023-04-18 17:20:39*
%MOMM*%
%LPD*%
G01*
G04 APERTURE LIST*
G04 APERTURE END LIST*
%TO.C,G\u002A\u002A\u002A*%
G36*
X103310679Y-117526459D02*
G01*
X103386704Y-117553595D01*
X103485378Y-117592887D01*
X103593968Y-117636470D01*
X103795461Y-117705779D01*
X103981546Y-117749781D01*
X104173851Y-117772923D01*
X104394000Y-117779649D01*
X104504562Y-117778187D01*
X104708641Y-117764132D01*
X104895260Y-117731528D01*
X105086045Y-117675928D01*
X105302623Y-117592887D01*
X105329704Y-117581766D01*
X105423763Y-117545188D01*
X105491742Y-117521966D01*
X105520437Y-117516717D01*
X105534247Y-117538769D01*
X105574286Y-117606521D01*
X105637672Y-117715275D01*
X105721813Y-117860505D01*
X105824118Y-118037684D01*
X105941994Y-118242285D01*
X106072849Y-118469781D01*
X106214092Y-118715645D01*
X106363131Y-118975352D01*
X106517373Y-119244373D01*
X106674226Y-119518182D01*
X106831099Y-119792253D01*
X106985400Y-120062058D01*
X107134536Y-120323072D01*
X107275916Y-120570767D01*
X107406948Y-120800616D01*
X107525040Y-121008092D01*
X107627599Y-121188670D01*
X107712034Y-121337821D01*
X107775754Y-121451020D01*
X107816165Y-121523740D01*
X107830676Y-121551453D01*
X107830758Y-121552324D01*
X107806167Y-121579391D01*
X107737727Y-121624121D01*
X107633875Y-121682387D01*
X107503044Y-121750065D01*
X107353670Y-121823027D01*
X107194189Y-121897149D01*
X107033034Y-121968304D01*
X106878641Y-122032367D01*
X106739444Y-122085212D01*
X106647640Y-122117101D01*
X106126559Y-122271019D01*
X105582442Y-122389131D01*
X105036858Y-122466605D01*
X105014861Y-122468143D01*
X104930303Y-122470680D01*
X104803149Y-122472126D01*
X104643332Y-122472443D01*
X104460781Y-122471592D01*
X104265429Y-122469536D01*
X104155402Y-122467606D01*
X103763618Y-122451627D01*
X103408422Y-122420050D01*
X103074566Y-122370229D01*
X102746802Y-122299518D01*
X102409882Y-122205272D01*
X102048557Y-122084844D01*
X102040905Y-122082115D01*
X101900916Y-122028747D01*
X101746123Y-121964350D01*
X101584971Y-121893052D01*
X101425902Y-121818980D01*
X101277360Y-121746260D01*
X101147788Y-121679021D01*
X101045630Y-121621389D01*
X100979328Y-121577490D01*
X100957325Y-121551453D01*
X100968340Y-121530151D01*
X101005438Y-121463186D01*
X101066191Y-121355137D01*
X101148006Y-121210530D01*
X101248293Y-121033892D01*
X101364458Y-120829750D01*
X101493910Y-120602630D01*
X101634056Y-120357059D01*
X101782306Y-120097564D01*
X101936066Y-119828672D01*
X102092745Y-119554910D01*
X102249752Y-119280803D01*
X102404493Y-119010879D01*
X102554377Y-118749666D01*
X102696812Y-118501688D01*
X102829207Y-118271474D01*
X102948968Y-118063550D01*
X103053505Y-117882443D01*
X103140225Y-117732679D01*
X103206536Y-117618786D01*
X103249846Y-117545290D01*
X103267564Y-117516717D01*
X103270506Y-117516095D01*
X103310679Y-117526459D01*
G37*
G36*
X104724890Y-114033196D02*
G01*
X104915639Y-114079542D01*
X104949851Y-114091918D01*
X105191606Y-114211504D01*
X105415730Y-114376727D01*
X105612436Y-114577801D01*
X105771941Y-114804941D01*
X105884458Y-115048361D01*
X105929598Y-115232334D01*
X105953074Y-115451670D01*
X105953521Y-115681558D01*
X105930923Y-115901054D01*
X105885264Y-116089216D01*
X105855885Y-116167108D01*
X105721556Y-116422547D01*
X105542114Y-116648679D01*
X105323337Y-116840180D01*
X105071003Y-116991723D01*
X104790888Y-117097983D01*
X104752994Y-117107294D01*
X104591117Y-117128905D01*
X104400639Y-117133659D01*
X104201530Y-117122458D01*
X104013759Y-117096206D01*
X103857298Y-117055803D01*
X103815273Y-117040129D01*
X103581024Y-116920079D01*
X103362643Y-116755012D01*
X103170213Y-116555120D01*
X103013819Y-116330597D01*
X102903543Y-116091638D01*
X102892133Y-116057595D01*
X102864478Y-115957839D01*
X102847590Y-115855394D01*
X102839155Y-115732150D01*
X102836858Y-115570000D01*
X102837063Y-115513190D01*
X102841058Y-115365357D01*
X102851927Y-115250680D01*
X102871983Y-115151051D01*
X102903543Y-115048361D01*
X102915919Y-115014149D01*
X103035505Y-114772394D01*
X103200728Y-114548270D01*
X103401802Y-114351564D01*
X103628942Y-114192059D01*
X103872362Y-114079542D01*
X104050939Y-114035252D01*
X104271462Y-114011051D01*
X104503138Y-114010365D01*
X104724890Y-114033196D01*
G37*
G36*
X107920248Y-109604210D02*
G01*
X107956871Y-109625658D01*
X108034248Y-109674173D01*
X108136450Y-109740097D01*
X108251143Y-109815553D01*
X108618801Y-110077064D01*
X109089976Y-110470961D01*
X109519721Y-110903796D01*
X109908729Y-111376354D01*
X110257691Y-111889419D01*
X110567298Y-112443777D01*
X110753101Y-112839845D01*
X110971997Y-113411217D01*
X111135312Y-113988934D01*
X111243964Y-114576431D01*
X111298874Y-115177142D01*
X111317175Y-115570000D01*
X106630189Y-115570000D01*
X106599042Y-115328709D01*
X106590059Y-115265574D01*
X106507457Y-114912706D01*
X106374235Y-114583385D01*
X106192709Y-114281581D01*
X105965192Y-114011266D01*
X105694000Y-113776409D01*
X105680393Y-113766296D01*
X105600370Y-113703910D01*
X105543936Y-113654943D01*
X105522572Y-113629253D01*
X105525949Y-113621860D01*
X105553175Y-113571763D01*
X105605932Y-113477773D01*
X105682089Y-113343600D01*
X105779521Y-113172953D01*
X105896097Y-112969544D01*
X106029691Y-112737082D01*
X106178174Y-112479278D01*
X106339418Y-112199842D01*
X106511295Y-111902484D01*
X106691677Y-111590915D01*
X106842755Y-111330234D01*
X107034432Y-110999838D01*
X107200812Y-110713673D01*
X107343809Y-110468646D01*
X107465334Y-110261665D01*
X107567298Y-110089639D01*
X107651614Y-109949475D01*
X107720194Y-109838083D01*
X107774950Y-109752369D01*
X107817794Y-109689243D01*
X107850638Y-109645613D01*
X107875393Y-109618386D01*
X107893972Y-109604471D01*
X107908286Y-109600776D01*
X107920248Y-109604210D01*
G37*
G36*
X100889429Y-109602450D02*
G01*
X100906545Y-109613014D01*
X100929271Y-109635974D01*
X100959519Y-109674422D01*
X100999200Y-109731449D01*
X101050227Y-109810147D01*
X101114512Y-109913609D01*
X101193966Y-110044925D01*
X101290502Y-110207187D01*
X101406031Y-110403489D01*
X101542466Y-110636920D01*
X101701719Y-110910574D01*
X101885701Y-111227541D01*
X102096324Y-111590915D01*
X102185293Y-111744527D01*
X102361790Y-112049624D01*
X102528744Y-112338698D01*
X102684025Y-112608039D01*
X102825507Y-112853938D01*
X102951060Y-113072683D01*
X103058558Y-113260565D01*
X103145872Y-113413874D01*
X103210874Y-113528898D01*
X103251436Y-113601928D01*
X103265429Y-113629253D01*
X103264890Y-113631284D01*
X103237412Y-113661177D01*
X103176621Y-113712838D01*
X103094000Y-113776409D01*
X103044068Y-113814324D01*
X102780265Y-114055599D01*
X102560538Y-114331645D01*
X102387201Y-114638492D01*
X102262570Y-114972171D01*
X102188959Y-115328709D01*
X102157812Y-115570000D01*
X97470826Y-115570000D01*
X97489127Y-115177142D01*
X97521737Y-114757158D01*
X97613985Y-114166014D01*
X97760616Y-113585692D01*
X97962549Y-113012758D01*
X98220703Y-112443777D01*
X98441126Y-112037972D01*
X98779178Y-111513610D01*
X99157085Y-111029973D01*
X99575540Y-110586274D01*
X100035233Y-110181729D01*
X100536858Y-109815553D01*
X100632989Y-109752211D01*
X100738127Y-109684153D01*
X100820493Y-109632193D01*
X100867753Y-109604210D01*
X100876011Y-109601190D01*
X100889429Y-109602450D01*
G37*
G36*
X112773317Y-116019904D02*
G01*
X112768432Y-116188593D01*
X112760527Y-116333593D01*
X112748988Y-116466096D01*
X112733204Y-116597293D01*
X112712563Y-116738376D01*
X112616131Y-117259447D01*
X112453961Y-117889436D01*
X112243573Y-118499190D01*
X111981914Y-119098571D01*
X111925879Y-119212506D01*
X111593182Y-119813772D01*
X111215715Y-120380810D01*
X110795594Y-120911822D01*
X110334934Y-121405011D01*
X109835851Y-121858578D01*
X109300462Y-122270725D01*
X108730883Y-122639655D01*
X108129228Y-122963570D01*
X107497615Y-123240672D01*
X106838160Y-123469162D01*
X106749378Y-123495112D01*
X106485522Y-123564162D01*
X106197016Y-123630036D01*
X105903472Y-123688710D01*
X105624501Y-123736162D01*
X105379715Y-123768369D01*
X105307367Y-123776010D01*
X105176559Y-123790004D01*
X105066007Y-123802049D01*
X104994000Y-123810164D01*
X104991022Y-123810504D01*
X104895766Y-123816322D01*
X104754811Y-123818731D01*
X104579002Y-123818072D01*
X104379179Y-123814688D01*
X104166187Y-123808920D01*
X103950868Y-123801109D01*
X103744063Y-123791598D01*
X103556617Y-123780726D01*
X103399372Y-123768837D01*
X103283170Y-123756272D01*
X102612333Y-123637519D01*
X101935730Y-123463461D01*
X101283003Y-123238768D01*
X100829613Y-123046103D01*
X100225810Y-122737886D01*
X99652535Y-122384130D01*
X99112108Y-121987441D01*
X98606850Y-121550427D01*
X98139079Y-121075695D01*
X97711114Y-120565853D01*
X97325277Y-120023507D01*
X96983886Y-119451265D01*
X96689260Y-118851734D01*
X96443720Y-118227521D01*
X96249585Y-117581233D01*
X96239500Y-117541547D01*
X96169077Y-117248578D01*
X96114033Y-116982711D01*
X96072713Y-116729950D01*
X96043459Y-116476296D01*
X96024615Y-116207751D01*
X96014523Y-115910318D01*
X96011528Y-115570000D01*
X96012208Y-115323665D01*
X96012540Y-115296366D01*
X96591470Y-115296366D01*
X96595098Y-115937656D01*
X96655204Y-116575277D01*
X96771513Y-117207560D01*
X96943746Y-117832839D01*
X97171626Y-118449446D01*
X97454876Y-119055714D01*
X97764295Y-119596919D01*
X98130619Y-120128006D01*
X98539179Y-120624319D01*
X98986981Y-121083849D01*
X99471028Y-121504584D01*
X99988325Y-121884514D01*
X100535875Y-122221629D01*
X101110683Y-122513919D01*
X101709753Y-122759373D01*
X102330088Y-122955980D01*
X102968693Y-123101730D01*
X103622572Y-123194613D01*
X103715641Y-123203473D01*
X104172253Y-123233218D01*
X104604081Y-123235789D01*
X105032708Y-123210759D01*
X105479715Y-123157697D01*
X105709198Y-123121037D01*
X106367033Y-122977873D01*
X107008508Y-122781453D01*
X107629925Y-122533370D01*
X108227587Y-122235218D01*
X108797797Y-121888591D01*
X109336858Y-121495083D01*
X109354237Y-121481100D01*
X109505827Y-121351416D01*
X109681165Y-121190521D01*
X109868966Y-121009698D01*
X110057943Y-120820235D01*
X110236813Y-120633417D01*
X110394288Y-120460529D01*
X110519084Y-120312857D01*
X110849729Y-119866477D01*
X111193663Y-119318158D01*
X111488204Y-118748175D01*
X111732723Y-118159979D01*
X111926592Y-117557021D01*
X112069181Y-116942752D01*
X112159863Y-116320623D01*
X112198007Y-115694084D01*
X112182987Y-115066587D01*
X112114172Y-114441583D01*
X111990934Y-113822523D01*
X111812645Y-113212857D01*
X111640002Y-112747692D01*
X111385966Y-112181113D01*
X111094458Y-111651058D01*
X110761225Y-111150666D01*
X110382016Y-110673074D01*
X109952578Y-110211422D01*
X109756058Y-110019167D01*
X109519851Y-109802512D01*
X109288860Y-109609421D01*
X109047382Y-109426916D01*
X108779715Y-109242019D01*
X108565411Y-109104159D01*
X107986244Y-108776853D01*
X107389317Y-108502047D01*
X106777789Y-108279604D01*
X106154822Y-108109388D01*
X105523576Y-107991261D01*
X104887212Y-107925088D01*
X104248891Y-107910732D01*
X103611773Y-107948057D01*
X102979019Y-108036926D01*
X102353790Y-108177202D01*
X101739247Y-108368749D01*
X101138550Y-108611430D01*
X100554860Y-108905110D01*
X99991337Y-109249651D01*
X99451143Y-109644916D01*
X99433764Y-109658899D01*
X99282174Y-109788583D01*
X99106836Y-109949478D01*
X98919035Y-110130301D01*
X98730058Y-110319764D01*
X98551188Y-110506582D01*
X98393713Y-110679470D01*
X98268917Y-110827142D01*
X98230840Y-110875302D01*
X97852534Y-111402862D01*
X97518936Y-111961860D01*
X97232507Y-112546750D01*
X96995711Y-113151990D01*
X96811010Y-113772036D01*
X96680869Y-114401346D01*
X96644599Y-114653072D01*
X96591470Y-115296366D01*
X96012540Y-115296366D01*
X96014684Y-115120095D01*
X96019569Y-114951406D01*
X96027474Y-114806406D01*
X96039013Y-114673903D01*
X96054797Y-114542706D01*
X96075438Y-114401623D01*
X96171870Y-113880552D01*
X96334040Y-113250563D01*
X96544428Y-112640809D01*
X96806087Y-112041428D01*
X96942492Y-111771187D01*
X97285836Y-111179870D01*
X97672505Y-110623947D01*
X98100228Y-110105022D01*
X98566734Y-109624700D01*
X99069754Y-109184586D01*
X99607018Y-108786285D01*
X100176254Y-108431402D01*
X100775194Y-108121540D01*
X101401565Y-107858306D01*
X102053099Y-107643304D01*
X102727525Y-107478139D01*
X103422572Y-107364416D01*
X103425525Y-107364052D01*
X103582648Y-107349831D01*
X103783874Y-107339175D01*
X104016561Y-107332085D01*
X104268068Y-107328560D01*
X104525752Y-107328601D01*
X104776972Y-107332207D01*
X105009086Y-107339378D01*
X105209453Y-107350114D01*
X105365429Y-107364416D01*
X105776078Y-107425617D01*
X106370402Y-107548645D01*
X106953128Y-107708793D01*
X107504998Y-107901231D01*
X107958388Y-108093896D01*
X108562191Y-108402113D01*
X109135466Y-108755869D01*
X109675893Y-109152558D01*
X110181151Y-109589572D01*
X110648922Y-110064304D01*
X111076887Y-110574146D01*
X111462724Y-111116492D01*
X111804115Y-111688734D01*
X112098741Y-112288265D01*
X112344281Y-112912478D01*
X112538416Y-113558766D01*
X112548501Y-113598452D01*
X112618924Y-113891421D01*
X112673968Y-114157288D01*
X112715288Y-114410049D01*
X112744542Y-114663703D01*
X112763386Y-114932248D01*
X112773478Y-115229681D01*
X112776473Y-115570000D01*
X112776130Y-115694084D01*
X112775793Y-115816334D01*
X112773317Y-116019904D01*
G37*
%TD*%
M02*
