%TF.GenerationSoftware,KiCad,Pcbnew,6.0.11-2627ca5db0~126~ubuntu20.04.1*%
%TF.CreationDate,2023-04-18T17:20:39+02:00*%
%TF.ProjectId,Giger-counter-addon,47696765-722d-4636-9f75-6e7465722d61,rev?*%
%TF.SameCoordinates,Original*%
%TF.FileFunction,Copper,L1,Top*%
%TF.FilePolarity,Positive*%
%FSLAX46Y46*%
G04 Gerber Fmt 4.6, Leading zero omitted, Abs format (unit mm)*
G04 Created by KiCad (PCBNEW 6.0.11-2627ca5db0~126~ubuntu20.04.1) date 2023-04-18 17:20:39*
%MOMM*%
%LPD*%
G01*
G04 APERTURE LIST*
G04 Aperture macros list*
%AMRoundRect*
0 Rectangle with rounded corners*
0 $1 Rounding radius*
0 $2 $3 $4 $5 $6 $7 $8 $9 X,Y pos of 4 corners*
0 Add a 4 corners polygon primitive as box body*
4,1,4,$2,$3,$4,$5,$6,$7,$8,$9,$2,$3,0*
0 Add four circle primitives for the rounded corners*
1,1,$1+$1,$2,$3*
1,1,$1+$1,$4,$5*
1,1,$1+$1,$6,$7*
1,1,$1+$1,$8,$9*
0 Add four rect primitives between the rounded corners*
20,1,$1+$1,$2,$3,$4,$5,0*
20,1,$1+$1,$4,$5,$6,$7,0*
20,1,$1+$1,$6,$7,$8,$9,0*
20,1,$1+$1,$8,$9,$2,$3,0*%
%AMFreePoly0*
4,1,22,0.550000,-0.750000,0.000000,-0.750000,0.000000,-0.745033,-0.079941,-0.743568,-0.215256,-0.701293,-0.333266,-0.622738,-0.424486,-0.514219,-0.481581,-0.384460,-0.499164,-0.250000,-0.500000,-0.250000,-0.500000,0.250000,-0.499164,0.250000,-0.499963,0.256109,-0.478152,0.396186,-0.417904,0.524511,-0.324060,0.630769,-0.204165,0.706417,-0.067858,0.745374,0.000000,0.744959,0.000000,0.750000,
0.550000,0.750000,0.550000,-0.750000,0.550000,-0.750000,$1*%
%AMFreePoly1*
4,1,20,0.000000,0.744959,0.073905,0.744508,0.209726,0.703889,0.328688,0.626782,0.421226,0.519385,0.479903,0.390333,0.500000,0.250000,0.500000,-0.250000,0.499851,-0.262216,0.476331,-0.402017,0.414519,-0.529596,0.319384,-0.634700,0.198574,-0.708877,0.061801,-0.746166,0.000000,-0.745033,0.000000,-0.750000,-0.550000,-0.750000,-0.550000,0.750000,0.000000,0.750000,0.000000,0.744959,
0.000000,0.744959,$1*%
G04 Aperture macros list end*
%ADD10C,0.300000*%
%TA.AperFunction,NonConductor*%
%ADD11C,0.300000*%
%TD*%
%TA.AperFunction,EtchedComponent*%
%ADD12C,0.150000*%
%TD*%
%TA.AperFunction,EtchedComponent*%
%ADD13C,0.100000*%
%TD*%
%TA.AperFunction,SMDPad,CuDef*%
%ADD14R,2.000000X1.500000*%
%TD*%
%TA.AperFunction,SMDPad,CuDef*%
%ADD15R,2.000000X3.800000*%
%TD*%
%TA.AperFunction,SMDPad,CuDef*%
%ADD16R,3.000000X1.000000*%
%TD*%
%TA.AperFunction,SMDPad,CuDef*%
%ADD17R,1.000000X3.000000*%
%TD*%
%TA.AperFunction,SMDPad,CuDef*%
%ADD18RoundRect,0.200000X0.200000X0.275000X-0.200000X0.275000X-0.200000X-0.275000X0.200000X-0.275000X0*%
%TD*%
%TA.AperFunction,SMDPad,CuDef*%
%ADD19RoundRect,0.200000X-0.275000X0.200000X-0.275000X-0.200000X0.275000X-0.200000X0.275000X0.200000X0*%
%TD*%
%TA.AperFunction,ComponentPad*%
%ADD20R,1.700000X1.700000*%
%TD*%
%TA.AperFunction,ComponentPad*%
%ADD21O,1.700000X1.700000*%
%TD*%
%TA.AperFunction,SMDPad,CuDef*%
%ADD22RoundRect,0.250000X0.475000X-0.250000X0.475000X0.250000X-0.475000X0.250000X-0.475000X-0.250000X0*%
%TD*%
%TA.AperFunction,SMDPad,CuDef*%
%ADD23RoundRect,0.200000X-0.200000X-0.275000X0.200000X-0.275000X0.200000X0.275000X-0.200000X0.275000X0*%
%TD*%
%TA.AperFunction,SMDPad,CuDef*%
%ADD24RoundRect,0.250000X-0.475000X0.250000X-0.475000X-0.250000X0.475000X-0.250000X0.475000X0.250000X0*%
%TD*%
%TA.AperFunction,ComponentPad*%
%ADD25R,4.600000X2.000000*%
%TD*%
%TA.AperFunction,ComponentPad*%
%ADD26O,4.200000X2.000000*%
%TD*%
%TA.AperFunction,ComponentPad*%
%ADD27O,2.000000X4.200000*%
%TD*%
%TA.AperFunction,SMDPad,CuDef*%
%ADD28RoundRect,0.200000X0.275000X-0.200000X0.275000X0.200000X-0.275000X0.200000X-0.275000X-0.200000X0*%
%TD*%
%TA.AperFunction,SMDPad,CuDef*%
%ADD29R,0.450000X0.600000*%
%TD*%
%TA.AperFunction,SMDPad,CuDef*%
%ADD30R,2.450000X5.900000*%
%TD*%
%TA.AperFunction,SMDPad,CuDef*%
%ADD31FreePoly0,90.000000*%
%TD*%
%TA.AperFunction,SMDPad,CuDef*%
%ADD32R,1.500000X1.000000*%
%TD*%
%TA.AperFunction,SMDPad,CuDef*%
%ADD33FreePoly1,90.000000*%
%TD*%
%TA.AperFunction,SMDPad,CuDef*%
%ADD34R,4.600000X1.100000*%
%TD*%
%TA.AperFunction,SMDPad,CuDef*%
%ADD35R,9.400000X10.800000*%
%TD*%
%TA.AperFunction,ViaPad*%
%ADD36C,0.800000*%
%TD*%
%TA.AperFunction,Conductor*%
%ADD37C,0.500000*%
%TD*%
%TA.AperFunction,Conductor*%
%ADD38C,0.250000*%
%TD*%
%TA.AperFunction,Conductor*%
%ADD39C,1.000000*%
%TD*%
G04 APERTURE END LIST*
D10*
D11*
X156222000Y-122359428D02*
X156150571Y-122502285D01*
X156150571Y-122716571D01*
X156222000Y-122930857D01*
X156364857Y-123073714D01*
X156507714Y-123145142D01*
X156793428Y-123216571D01*
X157007714Y-123216571D01*
X157293428Y-123145142D01*
X157436285Y-123073714D01*
X157579142Y-122930857D01*
X157650571Y-122716571D01*
X157650571Y-122573714D01*
X157579142Y-122359428D01*
X157507714Y-122288000D01*
X157007714Y-122288000D01*
X157007714Y-122573714D01*
X157650571Y-121645142D02*
X156650571Y-121645142D01*
X156150571Y-121645142D02*
X156222000Y-121716571D01*
X156293428Y-121645142D01*
X156222000Y-121573714D01*
X156150571Y-121645142D01*
X156293428Y-121645142D01*
X156650571Y-120288000D02*
X157864857Y-120288000D01*
X158007714Y-120359428D01*
X158079142Y-120430857D01*
X158150571Y-120573714D01*
X158150571Y-120788000D01*
X158079142Y-120930857D01*
X157579142Y-120288000D02*
X157650571Y-120430857D01*
X157650571Y-120716571D01*
X157579142Y-120859428D01*
X157507714Y-120930857D01*
X157364857Y-121002285D01*
X156936285Y-121002285D01*
X156793428Y-120930857D01*
X156722000Y-120859428D01*
X156650571Y-120716571D01*
X156650571Y-120430857D01*
X156722000Y-120288000D01*
X157579142Y-119002285D02*
X157650571Y-119145142D01*
X157650571Y-119430857D01*
X157579142Y-119573714D01*
X157436285Y-119645142D01*
X156864857Y-119645142D01*
X156722000Y-119573714D01*
X156650571Y-119430857D01*
X156650571Y-119145142D01*
X156722000Y-119002285D01*
X156864857Y-118930857D01*
X157007714Y-118930857D01*
X157150571Y-119645142D01*
X157650571Y-118288000D02*
X156650571Y-118288000D01*
X156936285Y-118288000D02*
X156793428Y-118216571D01*
X156722000Y-118145142D01*
X156650571Y-118002285D01*
X156650571Y-117859428D01*
X157579142Y-115573714D02*
X157650571Y-115716571D01*
X157650571Y-116002285D01*
X157579142Y-116145142D01*
X157507714Y-116216571D01*
X157364857Y-116288000D01*
X156936285Y-116288000D01*
X156793428Y-116216571D01*
X156722000Y-116145142D01*
X156650571Y-116002285D01*
X156650571Y-115716571D01*
X156722000Y-115573714D01*
X157650571Y-114716571D02*
X157579142Y-114859428D01*
X157507714Y-114930857D01*
X157364857Y-115002285D01*
X156936285Y-115002285D01*
X156793428Y-114930857D01*
X156722000Y-114859428D01*
X156650571Y-114716571D01*
X156650571Y-114502285D01*
X156722000Y-114359428D01*
X156793428Y-114288000D01*
X156936285Y-114216571D01*
X157364857Y-114216571D01*
X157507714Y-114288000D01*
X157579142Y-114359428D01*
X157650571Y-114502285D01*
X157650571Y-114716571D01*
X156650571Y-112930857D02*
X157650571Y-112930857D01*
X156650571Y-113573714D02*
X157436285Y-113573714D01*
X157579142Y-113502285D01*
X157650571Y-113359428D01*
X157650571Y-113145142D01*
X157579142Y-113002285D01*
X157507714Y-112930857D01*
X156650571Y-112216571D02*
X157650571Y-112216571D01*
X156793428Y-112216571D02*
X156722000Y-112145142D01*
X156650571Y-112002285D01*
X156650571Y-111788000D01*
X156722000Y-111645142D01*
X156864857Y-111573714D01*
X157650571Y-111573714D01*
X156650571Y-111073714D02*
X156650571Y-110502285D01*
X156150571Y-110859428D02*
X157436285Y-110859428D01*
X157579142Y-110788000D01*
X157650571Y-110645142D01*
X157650571Y-110502285D01*
X157579142Y-109430857D02*
X157650571Y-109573714D01*
X157650571Y-109859428D01*
X157579142Y-110002285D01*
X157436285Y-110073714D01*
X156864857Y-110073714D01*
X156722000Y-110002285D01*
X156650571Y-109859428D01*
X156650571Y-109573714D01*
X156722000Y-109430857D01*
X156864857Y-109359428D01*
X157007714Y-109359428D01*
X157150571Y-110073714D01*
X157650571Y-108716571D02*
X156650571Y-108716571D01*
X156936285Y-108716571D02*
X156793428Y-108645142D01*
X156722000Y-108573714D01*
X156650571Y-108430857D01*
X156650571Y-108288000D01*
X157650571Y-106645142D02*
X156150571Y-106645142D01*
X156150571Y-105645142D02*
X156150571Y-105359428D01*
X156222000Y-105216571D01*
X156364857Y-105073714D01*
X156650571Y-105002285D01*
X157150571Y-105002285D01*
X157436285Y-105073714D01*
X157579142Y-105216571D01*
X157650571Y-105359428D01*
X157650571Y-105645142D01*
X157579142Y-105788000D01*
X157436285Y-105930857D01*
X157150571Y-106002285D01*
X156650571Y-106002285D01*
X156364857Y-105930857D01*
X156222000Y-105788000D01*
X156150571Y-105645142D01*
X156150571Y-104573714D02*
X156150571Y-103716571D01*
X157650571Y-104145142D02*
X156150571Y-104145142D01*
D12*
%TO.C,REF\u002A\u002A*%
X147538000Y-122623000D02*
X147538000Y-124023000D01*
X149538000Y-126123000D02*
X149538000Y-127023000D01*
X143688000Y-124373000D02*
X144388000Y-125073000D01*
X146438000Y-126573000D02*
X148638000Y-128773000D01*
X145838000Y-125573000D02*
X145038000Y-124773000D01*
X144238000Y-122773000D02*
X141888000Y-122773000D01*
X142438000Y-124373000D02*
X142438000Y-128073000D01*
X141938000Y-129673000D02*
X137438000Y-125173000D01*
X144738000Y-122623000D02*
X144738000Y-124073000D01*
X145438000Y-123323000D02*
X144738000Y-122623000D01*
X146438000Y-126573000D02*
X146438000Y-125573000D01*
X147338000Y-121173000D02*
X146138000Y-122373000D01*
X150438000Y-120673000D02*
X154938000Y-125173000D01*
X146838000Y-123323000D02*
X147538000Y-122623000D01*
X146838000Y-123323000D02*
X147538000Y-124023000D01*
X141938000Y-120673000D02*
X150438000Y-120673000D01*
X150438000Y-129673000D02*
X141938000Y-129673000D01*
X148038000Y-123273000D02*
X149788000Y-123273000D01*
X145338000Y-128073000D02*
X145338000Y-128773000D01*
X144238000Y-122223000D02*
X142488000Y-122223000D01*
X142788000Y-126123000D02*
X144138000Y-127473000D01*
X148038000Y-122773000D02*
X150388000Y-122773000D01*
X149588000Y-124673000D02*
X149988000Y-125073000D01*
X145838000Y-122773000D02*
X144238000Y-121173000D01*
X148388000Y-124673000D02*
X149588000Y-124673000D01*
X146438000Y-125573000D02*
X147238000Y-124773000D01*
X144388000Y-125523000D02*
X143938000Y-125973000D01*
X147638000Y-128773000D02*
X144638000Y-128773000D01*
X144238000Y-121173000D02*
X142838000Y-121173000D01*
X148338000Y-127373000D02*
X147588000Y-126623000D01*
X146138000Y-127273000D02*
X144638000Y-128773000D01*
X144738000Y-124073000D02*
X145438000Y-123323000D01*
X142938000Y-125973000D02*
X142438000Y-126473000D01*
X137438000Y-125173000D02*
X141938000Y-120673000D01*
X146138000Y-122373000D02*
X144938000Y-121173000D01*
X144388000Y-125073000D02*
X144388000Y-125523000D01*
X147238000Y-124773000D02*
X146438000Y-123973000D01*
X154938000Y-125173000D02*
X150438000Y-129673000D01*
X149188000Y-127373000D02*
X148338000Y-127373000D01*
X142438000Y-124373000D02*
X143688000Y-124373000D01*
X148038000Y-121173000D02*
X149438000Y-121173000D01*
X147588000Y-126623000D02*
X147588000Y-125473000D01*
X145038000Y-124773000D02*
X145838000Y-123973000D01*
X144188000Y-123273000D02*
X142488000Y-123273000D01*
X145838000Y-126573000D02*
X145838000Y-125573000D01*
X148638000Y-128773000D02*
X149438000Y-128773000D01*
X143638000Y-128773000D02*
X142838000Y-128773000D01*
X147638000Y-128773000D02*
X146138000Y-127273000D01*
X146438000Y-122773000D02*
X148038000Y-121173000D01*
X150338000Y-126123000D02*
X148538000Y-126123000D01*
X146138000Y-127323000D02*
X146138000Y-128773000D01*
X146888000Y-128773000D02*
X146888000Y-128073000D01*
X149538000Y-127023000D02*
X149188000Y-127373000D01*
X145838000Y-123973000D02*
X145838000Y-122773000D01*
X145838000Y-126573000D02*
X143638000Y-128773000D01*
X148038000Y-122223000D02*
X149788000Y-122223000D01*
X143938000Y-125973000D02*
X142938000Y-125973000D01*
X147588000Y-125473000D02*
X148388000Y-124673000D01*
X144938000Y-121173000D02*
X147338000Y-121173000D01*
X146438000Y-123973000D02*
X146438000Y-122773000D01*
G36*
X146538000Y-124573000D02*
G01*
X146538000Y-124973000D01*
X146138000Y-125373000D01*
X145738000Y-124973000D01*
X145738000Y-124573000D01*
X146138000Y-124173000D01*
X146538000Y-124573000D01*
G37*
D13*
X146538000Y-124573000D02*
X146538000Y-124973000D01*
X146138000Y-125373000D01*
X145738000Y-124973000D01*
X145738000Y-124573000D01*
X146138000Y-124173000D01*
X146538000Y-124573000D01*
%TO.C,JP1*%
G36*
X116170000Y-103580000D02*
G01*
X115770000Y-103580000D01*
X115770000Y-103080000D01*
X116170000Y-103080000D01*
X116170000Y-103580000D01*
G37*
G36*
X116970000Y-103580000D02*
G01*
X116570000Y-103580000D01*
X116570000Y-103080000D01*
X116970000Y-103080000D01*
X116970000Y-103580000D01*
G37*
%TD*%
D14*
%TO.P,U2,1,GND*%
%TO.N,GND*%
X123320000Y-103870000D03*
D15*
%TO.P,U2,2,VO*%
%TO.N,+3.3V*%
X129620000Y-106170000D03*
D14*
X123320000Y-106170000D03*
%TO.P,U2,3,VI*%
%TO.N,+5V*%
X123320000Y-108470000D03*
%TD*%
D16*
%TO.P,U3,1,~{RST}*%
%TO.N,/Reset*%
X96005000Y-109920000D03*
%TO.P,U3,2,ADC*%
%TO.N,/ADC*%
X96005000Y-111920000D03*
%TO.P,U3,3,EN*%
%TO.N,+3.3V*%
X96005000Y-113920000D03*
%TO.P,U3,4,IO16*%
%TO.N,unconnected-(U3-Pad4)*%
X96005000Y-115920000D03*
%TO.P,U3,5,IO14*%
%TO.N,BEEPER*%
X96005000Y-117920000D03*
%TO.P,U3,6,IO12*%
%TO.N,/GPIO-12*%
X96005000Y-119920000D03*
%TO.P,U3,7,IO13*%
%TO.N,Net-(R5-Pad2)*%
X96005000Y-121920000D03*
%TO.P,U3,8,VCC*%
%TO.N,+3.3V*%
X96005000Y-123920000D03*
D17*
%TO.P,U3,9,CS0*%
%TO.N,unconnected-(U3-Pad9)*%
X99005000Y-125420000D03*
%TO.P,U3,10,MISO*%
%TO.N,unconnected-(U3-Pad10)*%
X101005000Y-125420000D03*
%TO.P,U3,11,IO9*%
%TO.N,/GPIO-9*%
X103005000Y-125420000D03*
%TO.P,U3,12,IO10*%
%TO.N,/GPIO-10*%
X105005000Y-125420000D03*
%TO.P,U3,13,MOSI*%
%TO.N,unconnected-(U3-Pad13)*%
X107005000Y-125420000D03*
%TO.P,U3,14,SCLK*%
%TO.N,unconnected-(U3-Pad14)*%
X109005000Y-125420000D03*
D16*
%TO.P,U3,15,GND*%
%TO.N,GND*%
X112005000Y-123920000D03*
%TO.P,U3,16,IO15*%
%TO.N,Net-(R3-Pad1)*%
X112005000Y-121920000D03*
%TO.P,U3,17,IO2*%
%TO.N,Net-(R4-Pad2)*%
X112005000Y-119920000D03*
%TO.P,U3,18,IO0*%
%TO.N,/GPIO-0*%
X112005000Y-117920000D03*
%TO.P,U3,19,IO4*%
%TO.N,Pulse_pin*%
X112005000Y-115920000D03*
%TO.P,U3,20,IO5*%
%TO.N,/GPIO-5*%
X112005000Y-113920000D03*
%TO.P,U3,21,IO3/RXD0*%
%TO.N,/Rx*%
X112005000Y-111920000D03*
%TO.P,U3,22,IO1/TXD0*%
%TO.N,/Tx*%
X112005000Y-109920000D03*
%TD*%
D18*
%TO.P,R5,1*%
%TO.N,+3.3V*%
X93985000Y-126110000D03*
%TO.P,R5,2*%
%TO.N,Net-(R5-Pad2)*%
X92335000Y-126110000D03*
%TD*%
D19*
%TO.P,R3,1*%
%TO.N,Net-(R3-Pad1)*%
X117090000Y-126125000D03*
%TO.P,R3,2*%
%TO.N,GND*%
X117090000Y-127775000D03*
%TD*%
D20*
%TO.P,J3,1,Pin_1*%
%TO.N,GND*%
X121870000Y-113870000D03*
D21*
%TO.P,J3,2,Pin_2*%
%TO.N,Pulse_pin*%
X121870000Y-116410000D03*
%TO.P,J3,3,Pin_3*%
%TO.N,+5V*%
X121870000Y-118950000D03*
%TO.P,J3,4,Pin_4*%
%TO.N,+9V*%
X121870000Y-121490000D03*
%TD*%
D20*
%TO.P,J4,1,Pin_1*%
%TO.N,GND*%
X116270000Y-122780000D03*
D21*
%TO.P,J4,2,Pin_2*%
%TO.N,/GPIO-0*%
X116270000Y-120240000D03*
%TO.P,J4,3,Pin_3*%
%TO.N,Net-(J4-Pad3)*%
X116270000Y-117700000D03*
%TO.P,J4,4,Pin_4*%
%TO.N,/Tx*%
X116270000Y-115160000D03*
%TO.P,J4,5,Pin_5*%
%TO.N,/Rx*%
X116270000Y-112620000D03*
%TO.P,J4,6,Pin_6*%
%TO.N,/Reset*%
X116270000Y-110080000D03*
%TD*%
D22*
%TO.P,C3,1*%
%TO.N,+5V*%
X120350000Y-109020000D03*
%TO.P,C3,2*%
%TO.N,GND*%
X120350000Y-107120000D03*
%TD*%
D23*
%TO.P,R2,1*%
%TO.N,+3.3V*%
X91525000Y-111650000D03*
%TO.P,R2,2*%
%TO.N,/GPIO-0*%
X93175000Y-111650000D03*
%TD*%
D24*
%TO.P,C4,1*%
%TO.N,+3.3V*%
X120350000Y-103430000D03*
%TO.P,C4,2*%
%TO.N,GND*%
X120350000Y-105330000D03*
%TD*%
%TO.P,C1,1*%
%TO.N,+9V*%
X133600000Y-105150000D03*
%TO.P,C1,2*%
%TO.N,GND*%
X133600000Y-107050000D03*
%TD*%
D20*
%TO.P,J1,1,Pin_1*%
%TO.N,GND*%
X92060000Y-115270000D03*
D21*
%TO.P,J1,2,Pin_2*%
%TO.N,/GPIO-12*%
X89520000Y-115270000D03*
%TO.P,J1,3,Pin_3*%
%TO.N,/GPIO-10*%
X92060000Y-117810000D03*
%TO.P,J1,4,Pin_4*%
%TO.N,/GPIO-9*%
X89520000Y-117810000D03*
%TO.P,J1,5,Pin_5*%
%TO.N,/GPIO-5*%
X92060000Y-120350000D03*
%TO.P,J1,6,Pin_6*%
%TO.N,/ADC*%
X89520000Y-120350000D03*
%TO.P,J1,7,Pin_7*%
%TO.N,+3.3V*%
X92060000Y-122890000D03*
%TO.P,J1,8,Pin_8*%
%TO.N,+5V*%
X89520000Y-122890000D03*
%TD*%
D19*
%TO.P,R6,1*%
%TO.N,Net-(J2-Pad1)*%
X92100000Y-105275000D03*
%TO.P,R6,2*%
%TO.N,BEEPER*%
X92100000Y-106925000D03*
%TD*%
D25*
%TO.P,J6,1*%
%TO.N,+9V*%
X131800000Y-115000000D03*
D26*
%TO.P,J6,2*%
%TO.N,GND*%
X131800000Y-121300000D03*
D27*
%TO.P,J6,3*%
%TO.N,unconnected-(J6-Pad3)*%
X136600000Y-117900000D03*
%TD*%
D22*
%TO.P,C2,1*%
%TO.N,+5V*%
X133604000Y-110932000D03*
%TO.P,C2,2*%
%TO.N,GND*%
X133604000Y-109032000D03*
%TD*%
D20*
%TO.P,J5,1,Pin_1*%
%TO.N,GND*%
X122200000Y-126400000D03*
D21*
%TO.P,J5,2,Pin_2*%
%TO.N,+9V*%
X124740000Y-126400000D03*
%TD*%
D20*
%TO.P,J2,1,Pin_1*%
%TO.N,Net-(J2-Pad1)*%
X92120000Y-102400000D03*
%TD*%
D28*
%TO.P,R4,1*%
%TO.N,+3.3V*%
X115260000Y-127745000D03*
%TO.P,R4,2*%
%TO.N,Net-(R4-Pad2)*%
X115260000Y-126095000D03*
%TD*%
D23*
%TO.P,R1,1*%
%TO.N,+3.3V*%
X91525000Y-109920000D03*
%TO.P,R1,2*%
%TO.N,/Reset*%
X93175000Y-109920000D03*
%TD*%
D29*
%TO.P,D1,1,K*%
%TO.N,Net-(D1-Pad1)*%
X136144000Y-105630000D03*
%TO.P,D1,2,A*%
%TO.N,GND*%
X136144000Y-107730000D03*
%TD*%
D30*
%TO.P,L1,1,1*%
%TO.N,Net-(D1-Pad1)*%
X141008000Y-117094000D03*
%TO.P,L1,2,2*%
%TO.N,+5V*%
X146558000Y-117094000D03*
%TD*%
D31*
%TO.P,JP1,1,A*%
%TO.N,+3.3V*%
X116370000Y-103980000D03*
D32*
%TO.P,JP1,2,C*%
%TO.N,Net-(J4-Pad3)*%
X116370000Y-102680000D03*
D33*
%TO.P,JP1,3,B*%
%TO.N,+5V*%
X116370000Y-101380000D03*
%TD*%
D34*
%TO.P,U1,1,VIN*%
%TO.N,+9V*%
X140275000Y-104420000D03*
%TO.P,U1,2,OUT*%
%TO.N,Net-(D1-Pad1)*%
X140275000Y-106120000D03*
%TO.P,U1,3,GND*%
%TO.N,GND*%
X140275000Y-107820000D03*
D35*
X149425000Y-107820000D03*
D34*
%TO.P,U1,4,FB*%
%TO.N,+5V*%
X140275000Y-109520000D03*
%TO.P,U1,5,~{ON}/OFF*%
%TO.N,GND*%
X140275000Y-111220000D03*
%TD*%
D36*
%TO.N,+9V*%
X134000000Y-103400000D03*
%TO.N,GND*%
X131800000Y-103400000D03*
X125100000Y-104700000D03*
X118100000Y-106200000D03*
X115100000Y-106200000D03*
%TO.N,+5V*%
X149606000Y-117856000D03*
X127100000Y-104500000D03*
X143764000Y-109728000D03*
X127100000Y-107100000D03*
%TO.N,+3.3V*%
X98400000Y-113900000D03*
X120500000Y-101900000D03*
%TO.N,Net-(D1-Pad1)*%
X139192000Y-114554000D03*
X143510000Y-106172000D03*
%TO.N,/GPIO-12*%
X98600000Y-120000000D03*
%TO.N,/GPIO-10*%
X99900000Y-118000000D03*
%TO.N,/GPIO-5*%
X109700000Y-113900000D03*
X101700000Y-120200000D03*
%TO.N,/ADC*%
X88800000Y-113300000D03*
X98400000Y-112000000D03*
%TO.N,BEEPER*%
X90500000Y-112900000D03*
X98400000Y-118100000D03*
%TO.N,Pulse_pin*%
X109600000Y-116000000D03*
%TD*%
D37*
%TO.N,+9V*%
X137186000Y-104420000D02*
X137575000Y-104420000D01*
D38*
X133600000Y-105150000D02*
X134330000Y-104420000D01*
D37*
X135020000Y-104420000D02*
X137186000Y-104420000D01*
D38*
X134330000Y-104420000D02*
X135220000Y-104420000D01*
D37*
X137186000Y-104420000D02*
X140275000Y-104420000D01*
X134000000Y-103400000D02*
X135020000Y-104420000D01*
D38*
X135220000Y-104420000D02*
X137575000Y-104420000D01*
D37*
X135020000Y-104420000D02*
X135220000Y-104420000D01*
%TO.N,GND*%
X134370000Y-107820000D02*
X133734000Y-107820000D01*
X140275000Y-111220000D02*
X146025000Y-111220000D01*
D39*
X122682000Y-128778000D02*
X122174000Y-128270000D01*
D38*
X123320000Y-103870000D02*
X122430000Y-103870000D01*
D37*
X115100000Y-106200000D02*
X118100000Y-106200000D01*
X131800000Y-103400000D02*
X131800000Y-107670000D01*
D38*
X121700000Y-105100000D02*
X121470000Y-105330000D01*
X118970000Y-105330000D02*
X118100000Y-106200000D01*
X113520000Y-123920000D02*
X112005000Y-123920000D01*
X114180000Y-123920000D02*
X113520000Y-123920000D01*
D37*
X133600000Y-107686000D02*
X133734000Y-107820000D01*
D38*
X116270000Y-122780000D02*
X115320000Y-122780000D01*
D37*
X133734000Y-107820000D02*
X133604000Y-107950000D01*
D39*
X122174000Y-128270000D02*
X122174000Y-126426000D01*
D38*
X121700000Y-104600000D02*
X121700000Y-105100000D01*
D37*
X133600000Y-107050000D02*
X133600000Y-107686000D01*
D38*
X118600000Y-125600000D02*
X118600000Y-127200000D01*
X118580000Y-122780000D02*
X122200000Y-126400000D01*
D37*
X124270000Y-103870000D02*
X125100000Y-104700000D01*
D39*
X131800000Y-121300000D02*
X131800000Y-125502000D01*
X128524000Y-128778000D02*
X122682000Y-128778000D01*
D37*
X146025000Y-111220000D02*
X149425000Y-107820000D01*
X132080000Y-107950000D02*
X133604000Y-107950000D01*
D38*
X120350000Y-107120000D02*
X119020000Y-107120000D01*
D37*
X147265000Y-107280000D02*
X146725000Y-107820000D01*
D38*
X120350000Y-105330000D02*
X120350000Y-107120000D01*
X118025000Y-127775000D02*
X117090000Y-127775000D01*
X119020000Y-107120000D02*
X118100000Y-106200000D01*
X120350000Y-105330000D02*
X118970000Y-105330000D01*
D37*
X133604000Y-107950000D02*
X133604000Y-109032000D01*
X137575000Y-107820000D02*
X146725000Y-107820000D01*
X123320000Y-103870000D02*
X124270000Y-103870000D01*
D39*
X122174000Y-126426000D02*
X122200000Y-126400000D01*
D38*
X115320000Y-122780000D02*
X114180000Y-123920000D01*
D39*
X131800000Y-125502000D02*
X128524000Y-128778000D01*
D38*
X116270000Y-122780000D02*
X118580000Y-122780000D01*
X116920000Y-123920000D02*
X118600000Y-125600000D01*
X121470000Y-105330000D02*
X120350000Y-105330000D01*
D37*
X131800000Y-107670000D02*
X132080000Y-107950000D01*
X137575000Y-107820000D02*
X134370000Y-107820000D01*
D38*
X122430000Y-103870000D02*
X121700000Y-104600000D01*
X113520000Y-123920000D02*
X116920000Y-123920000D01*
X118600000Y-127200000D02*
X118025000Y-127775000D01*
D37*
X137575000Y-107820000D02*
X134555051Y-107820000D01*
D38*
%TO.N,+5V*%
X119100000Y-101600000D02*
X120200000Y-100500000D01*
X120350000Y-109020000D02*
X121380000Y-109020000D01*
X118000000Y-101500000D02*
X118100000Y-101600000D01*
D37*
X135016000Y-109520000D02*
X133604000Y-110932000D01*
X127100000Y-109374000D02*
X127100000Y-108866000D01*
D38*
X127012000Y-103112000D02*
X127100000Y-103200000D01*
D37*
X127508000Y-110490000D02*
X127100000Y-110082000D01*
X137575000Y-109520000D02*
X140880000Y-109520000D01*
X127100000Y-108866000D02*
X126704000Y-108470000D01*
D38*
X121700000Y-100500000D02*
X122546000Y-101346000D01*
D37*
X133604000Y-110932000D02*
X127950000Y-110932000D01*
X126704000Y-108470000D02*
X123320000Y-108470000D01*
X147555000Y-117856000D02*
X147047000Y-117348000D01*
X127950000Y-110932000D02*
X127508000Y-110490000D01*
D38*
X121930000Y-108470000D02*
X123320000Y-108470000D01*
D37*
X123366000Y-118950000D02*
X121870000Y-118950000D01*
X127100000Y-110644000D02*
X124206000Y-113538000D01*
X137575000Y-109520000D02*
X135016000Y-109520000D01*
D38*
X120200000Y-100500000D02*
X121700000Y-100500000D01*
X127012000Y-102882000D02*
X127012000Y-103112000D01*
D37*
X149606000Y-117856000D02*
X147555000Y-117856000D01*
X127100000Y-109374000D02*
X127100000Y-110644000D01*
D38*
X125476000Y-101346000D02*
X127012000Y-102882000D01*
D37*
X143556000Y-109520000D02*
X143764000Y-109728000D01*
X124206000Y-118110000D02*
X123366000Y-118950000D01*
D38*
X118100000Y-101600000D02*
X119100000Y-101600000D01*
X116370000Y-101380000D02*
X117880000Y-101380000D01*
X121380000Y-109020000D02*
X121930000Y-108470000D01*
D37*
X124206000Y-113538000D02*
X124206000Y-118110000D01*
D38*
X122546000Y-101346000D02*
X125476000Y-101346000D01*
D37*
X127100000Y-110082000D02*
X127100000Y-109374000D01*
D38*
X127100000Y-103200000D02*
X127100000Y-104500000D01*
X117880000Y-101380000D02*
X118000000Y-101500000D01*
D37*
X127100000Y-108866000D02*
X127100000Y-107100000D01*
X140275000Y-109520000D02*
X143556000Y-109520000D01*
%TO.N,+3.3V*%
X122682000Y-102616000D02*
X124714000Y-102616000D01*
X127510000Y-106170000D02*
X129620000Y-106170000D01*
D38*
X93000000Y-125100000D02*
X93600000Y-125100000D01*
X98400000Y-128000000D02*
X99400000Y-129000000D01*
X91525000Y-111650000D02*
X91525000Y-112525000D01*
X93090000Y-123920000D02*
X92060000Y-122890000D01*
X99400000Y-129000000D02*
X100400000Y-128000000D01*
X102400000Y-128000000D02*
X103400000Y-129000000D01*
X120320000Y-103400000D02*
X120350000Y-103430000D01*
X113600000Y-128200000D02*
X114055000Y-127745000D01*
X92060000Y-122890000D02*
X92060000Y-124160000D01*
X95100000Y-128600000D02*
X97800000Y-128600000D01*
X93985000Y-125485000D02*
X93985000Y-126110000D01*
X116370000Y-103980000D02*
X118822000Y-103980000D01*
X93985000Y-127485000D02*
X95100000Y-128600000D01*
X100400000Y-128000000D02*
X101400000Y-129000000D01*
X92060000Y-124160000D02*
X93000000Y-125100000D01*
X107900000Y-129100000D02*
X108800000Y-128200000D01*
X124630000Y-106170000D02*
X123320000Y-106170000D01*
X118822000Y-103980000D02*
X119402000Y-103400000D01*
X106700000Y-127900000D02*
X107900000Y-129100000D01*
D37*
X126238000Y-105156000D02*
X127252000Y-106170000D01*
D38*
X93985000Y-126110000D02*
X93985000Y-127485000D01*
X104500000Y-127900000D02*
X105600000Y-129000000D01*
X98380000Y-113920000D02*
X98400000Y-113900000D01*
D37*
X120500000Y-101900000D02*
X120500000Y-103280000D01*
D38*
X103400000Y-129000000D02*
X104500000Y-127900000D01*
X96005000Y-113920000D02*
X94220000Y-113920000D01*
D37*
X120500000Y-103280000D02*
X120350000Y-103430000D01*
D38*
X108800000Y-128200000D02*
X113600000Y-128200000D01*
X91525000Y-109920000D02*
X91525000Y-111650000D01*
X127510000Y-106170000D02*
X124630000Y-106170000D01*
D37*
X127252000Y-106170000D02*
X127510000Y-106170000D01*
X126238000Y-104140000D02*
X126238000Y-105156000D01*
D38*
X101400000Y-129000000D02*
X102400000Y-128000000D01*
X94220000Y-113920000D02*
X93300000Y-113000000D01*
D37*
X120500000Y-101900000D02*
X121966000Y-101900000D01*
D38*
X119402000Y-103400000D02*
X120320000Y-103400000D01*
X96005000Y-113920000D02*
X98380000Y-113920000D01*
D37*
X124714000Y-102616000D02*
X126238000Y-104140000D01*
X121966000Y-101900000D02*
X122682000Y-102616000D01*
D38*
X105600000Y-129000000D02*
X106700000Y-127900000D01*
X114055000Y-127745000D02*
X115260000Y-127745000D01*
X91525000Y-112525000D02*
X92000000Y-113000000D01*
X92000000Y-113000000D02*
X93300000Y-113000000D01*
X96005000Y-123920000D02*
X93090000Y-123920000D01*
X93600000Y-125100000D02*
X93985000Y-125485000D01*
X97800000Y-128600000D02*
X98400000Y-128000000D01*
D37*
%TO.N,Net-(D1-Pad1)*%
X136634000Y-106120000D02*
X136144000Y-105630000D01*
X143510000Y-106172000D02*
X140327000Y-106172000D01*
X140275000Y-106120000D02*
X136634000Y-106120000D01*
X140327000Y-106172000D02*
X140275000Y-106120000D01*
X141497000Y-116859000D02*
X139192000Y-114554000D01*
D38*
%TO.N,/GPIO-12*%
X98520000Y-119920000D02*
X98600000Y-120000000D01*
X96005000Y-119920000D02*
X98520000Y-119920000D01*
%TO.N,/GPIO-10*%
X105005000Y-125420000D02*
X105005000Y-121405000D01*
X101600000Y-118000000D02*
X99900000Y-118000000D01*
X105005000Y-121405000D02*
X101600000Y-118000000D01*
%TO.N,/GPIO-9*%
X90810000Y-119100000D02*
X93800000Y-119100000D01*
X89520000Y-117810000D02*
X90810000Y-119100000D01*
X94000000Y-118900000D02*
X101600000Y-118900000D01*
X103300000Y-120600000D02*
X103300000Y-122500000D01*
X93800000Y-119100000D02*
X94000000Y-118900000D01*
X101600000Y-118900000D02*
X103300000Y-120600000D01*
X103000000Y-122800000D02*
X103005000Y-122805000D01*
X103300000Y-122500000D02*
X103000000Y-122800000D01*
X103005000Y-122805000D02*
X103005000Y-125420000D01*
%TO.N,/GPIO-5*%
X92060000Y-120350000D02*
X92610000Y-120900000D01*
X92610000Y-120900000D02*
X101000000Y-120900000D01*
X111985000Y-113900000D02*
X112005000Y-113920000D01*
X109700000Y-113900000D02*
X111985000Y-113900000D01*
X101000000Y-120900000D02*
X101700000Y-120200000D01*
%TO.N,/ADC*%
X98320000Y-111920000D02*
X98400000Y-112000000D01*
X88000000Y-114900000D02*
X88000000Y-114100000D01*
X89520000Y-120350000D02*
X88000000Y-118830000D01*
X88000000Y-118830000D02*
X88000000Y-114900000D01*
X88000000Y-114100000D02*
X88800000Y-113300000D01*
X96005000Y-111920000D02*
X98320000Y-111920000D01*
%TO.N,BEEPER*%
X90200000Y-108825000D02*
X92100000Y-106925000D01*
X90500000Y-112900000D02*
X90200000Y-112600000D01*
X90200000Y-112600000D02*
X90200000Y-108825000D01*
X98220000Y-117920000D02*
X98400000Y-118100000D01*
X96005000Y-117920000D02*
X98220000Y-117920000D01*
%TO.N,Pulse_pin*%
X109680000Y-115920000D02*
X109600000Y-116000000D01*
X112005000Y-115920000D02*
X109680000Y-115920000D01*
%TO.N,/GPIO-0*%
X102260000Y-110900000D02*
X93925000Y-110900000D01*
X112005000Y-117920000D02*
X109280000Y-117920000D01*
X93925000Y-110900000D02*
X93175000Y-111650000D01*
X113950000Y-117920000D02*
X112005000Y-117920000D01*
X116270000Y-120240000D02*
X113950000Y-117920000D01*
X109280000Y-117920000D02*
X102260000Y-110900000D01*
%TO.N,Net-(J4-Pad3)*%
X115600000Y-108400000D02*
X117200000Y-108400000D01*
X117200000Y-108400000D02*
X117900000Y-109100000D01*
X114200000Y-103700000D02*
X114200000Y-107000000D01*
X114200000Y-107000000D02*
X115600000Y-108400000D01*
X117900000Y-109100000D02*
X117900000Y-116070000D01*
X116370000Y-102680000D02*
X115220000Y-102680000D01*
X115220000Y-102680000D02*
X114200000Y-103700000D01*
X117900000Y-116070000D02*
X116270000Y-117700000D01*
%TO.N,/Tx*%
X110100000Y-112900000D02*
X109500000Y-112300000D01*
X109500000Y-112300000D02*
X109500000Y-110500000D01*
X110080000Y-109920000D02*
X112005000Y-109920000D01*
X109500000Y-110500000D02*
X110080000Y-109920000D01*
X116270000Y-115160000D02*
X114010000Y-112900000D01*
X114010000Y-112900000D02*
X110100000Y-112900000D01*
%TO.N,/Rx*%
X115570000Y-111920000D02*
X116270000Y-112620000D01*
X112005000Y-111920000D02*
X115570000Y-111920000D01*
%TO.N,/Reset*%
X101900000Y-108400000D02*
X114590000Y-108400000D01*
X96005000Y-109920000D02*
X100380000Y-109920000D01*
X93175000Y-109920000D02*
X96005000Y-109920000D01*
X114590000Y-108400000D02*
X116270000Y-110080000D01*
X100380000Y-109920000D02*
X101900000Y-108400000D01*
%TO.N,Net-(R3-Pad1)*%
X110480000Y-121920000D02*
X112005000Y-121920000D01*
X110100000Y-122300000D02*
X110480000Y-121920000D01*
X110100000Y-124600000D02*
X110100000Y-122300000D01*
X114500000Y-125200000D02*
X116400000Y-125200000D01*
X116400000Y-125200000D02*
X117090000Y-125890000D01*
X110100000Y-124600000D02*
X110700000Y-125200000D01*
X117090000Y-125890000D02*
X117090000Y-126125000D01*
X110700000Y-125200000D02*
X114500000Y-125200000D01*
%TO.N,Net-(R4-Pad2)*%
X108000000Y-121700000D02*
X108000000Y-127065000D01*
X113905000Y-126095000D02*
X115260000Y-126095000D01*
X113500000Y-126500000D02*
X113905000Y-126095000D01*
X109780000Y-119920000D02*
X108000000Y-121700000D01*
X112005000Y-119920000D02*
X109780000Y-119920000D01*
X108000000Y-127065000D02*
X108535000Y-127600000D01*
X112300000Y-126500000D02*
X113500000Y-126500000D01*
X111200000Y-127600000D02*
X112300000Y-126500000D01*
X108535000Y-127600000D02*
X111200000Y-127600000D01*
%TO.N,Net-(R5-Pad2)*%
X90800000Y-122300000D02*
X90800000Y-124575000D01*
X90962500Y-124737500D02*
X90885000Y-124660000D01*
X92335000Y-126110000D02*
X90962500Y-124737500D01*
X95749999Y-121664999D02*
X91435001Y-121664999D01*
X91435001Y-121664999D02*
X90800000Y-122300000D01*
X96005000Y-121920000D02*
X95749999Y-121664999D01*
X90800000Y-124575000D02*
X90962500Y-124737500D01*
%TO.N,Net-(J2-Pad1)*%
X92120000Y-103220000D02*
X92120000Y-102400000D01*
X92700000Y-103700000D02*
X92500000Y-103500000D01*
X92400000Y-103500000D02*
X92120000Y-103220000D01*
X92400000Y-104000000D02*
X92700000Y-103700000D01*
X92100000Y-105275000D02*
X92100000Y-104800000D01*
X92100000Y-104800000D02*
X91700000Y-104400000D01*
X91700000Y-104400000D02*
X92100000Y-104000000D01*
X92100000Y-104000000D02*
X92400000Y-104000000D01*
X92500000Y-103500000D02*
X92400000Y-103500000D01*
%TD*%
M02*
